<?xml version="1.0" standalone="no"?>
<!DOCTYPE svg PUBLIC "-//W3C//DTD SVG 20010904//EN"
 "http://www.w3.org/TR/2001/REC-SVG-20010904/DTD/svg10.dtd">
<svg version="1.0" xmlns="http://www.w3.org/2000/svg"
 width="225.000000pt" height="225.000000pt" viewBox="0 0 225.000000 225.000000"
 preserveAspectRatio="xMidYMid meet">
<metadata>
Created by potrace 1.10, written by Peter Selinger 2001-2011
</metadata>
<g transform="translate(0.000000,225.000000) scale(0.100000,-0.100000)"
fill="#000000" stroke="none">
<path d="M1040 1960 c0 -11 5 -20 10 -20 6 0 10 9 10 20 0 11 -4 20 -10 20 -5
0 -10 -9 -10 -20z"/>
<path d="M1070 1960 c0 -11 5 -20 10 -20 6 0 10 9 10 20 0 11 -4 20 -10 20 -5
0 -10 -9 -10 -20z"/>
<path d="M1100 1960 c0 -11 5 -20 10 -20 6 0 10 9 10 20 0 11 -4 20 -10 20 -5
0 -10 -9 -10 -20z"/>
<path d="M1130 1960 c0 -11 5 -20 10 -20 6 0 10 9 10 20 0 11 -4 20 -10 20 -5
0 -10 -9 -10 -20z"/>
<path d="M1160 1960 c0 -11 5 -20 10 -20 6 0 10 9 10 20 0 11 -4 20 -10 20 -5
0 -10 -9 -10 -20z"/>
<path d="M1190 1960 c0 -11 5 -20 10 -20 6 0 10 9 10 20 0 11 -4 20 -10 20 -5
0 -10 -9 -10 -20z"/>
<path d="M1220 1960 c0 -11 5 -20 10 -20 6 0 10 9 10 20 0 11 -4 20 -10 20 -5
0 -10 -9 -10 -20z"/>
<path d="M1250 1961 c0 -17 7 -20 49 -19 33 0 51 5 55 14 7 17 -39 20 -50 3
-5 -8 -10 -6 -16 5 -13 22 -38 20 -38 -3z"/>
<path d="M982 1954 c4 -21 22 -23 26 -1 2 10 -3 17 -13 17 -10 0 -15 -6 -13
-16z"/>
<path d="M843 1913 c-26 -9 -13 -33 18 -33 23 0 30 4 27 17 -3 16 -23 24 -45
16z"/>
<path d="M900 1901 c0 -12 5 -21 10 -21 6 0 10 6 10 14 0 8 -4 18 -10 21 -5 3
-10 -3 -10 -14z"/>
<path d="M1135 1907 c-4 -10 -5 -21 -1 -24 10 -10 18 4 13 24 -4 17 -4 17 -12
0z"/>
<path d="M1359 1911 c-8 -2 -17 -9 -21 -15 -5 -8 -8 -7 -8 2 0 6 -5 12 -11 12
-25 0 0 -25 27 -27 21 -2 25 0 14 7 -8 5 -10 10 -4 10 5 0 15 -5 21 -11 13
-13 33 -4 33 14 0 13 -26 17 -51 8z"/>
<path d="M1429 1918 c-6 -21 -5 -38 2 -38 5 0 9 9 9 20 0 16 -7 28 -11 18z"/>
<path d="M930 1896 c0 -7 10 -14 23 -14 12 0 27 -1 32 -2 32 -7 75 1 75 15 0
18 -16 20 -23 3 -4 -10 -6 -10 -6 0 -1 18 -101 17 -101 -2z"/>
<path d="M1070 1895 c0 -8 5 -15 10 -15 6 0 10 7 10 15 0 8 -4 15 -10 15 -5 0
-10 -7 -10 -15z"/>
<path d="M1100 1895 c0 -8 5 -15 10 -15 6 0 10 7 10 15 0 8 -4 15 -10 15 -5 0
-10 -7 -10 -15z"/>
<path d="M1160 1895 c0 -8 5 -15 10 -15 6 0 10 7 10 15 0 8 -4 15 -10 15 -5 0
-10 -7 -10 -15z"/>
<path d="M1190 1895 c0 -8 5 -15 10 -15 6 0 10 7 10 15 0 8 -4 15 -10 15 -5 0
-10 -7 -10 -15z"/>
<path d="M1220 1895 c0 -8 5 -15 10 -15 6 0 10 7 10 15 0 8 -4 15 -10 15 -5 0
-10 -7 -10 -15z"/>
<path d="M1250 1895 c0 -8 5 -15 10 -15 6 0 10 7 10 15 0 8 -4 15 -10 15 -5 0
-10 -7 -10 -15z"/>
<path d="M1280 1895 c0 -8 5 -15 10 -15 6 0 10 7 10 15 0 8 -4 15 -10 15 -5 0
-10 -7 -10 -15z"/>
<path d="M1450 1895 c0 -18 16 -20 23 -2 4 10 6 10 6 0 1 -18 21 -16 21 2 0 9
-9 15 -25 15 -16 0 -25 -6 -25 -15z"/>
<path d="M890 1852 c-8 -3 -18 -10 -22 -16 -5 -8 -8 -7 -8 2 0 6 -4 12 -10 12
-5 0 -10 -7 -10 -15 0 -17 46 -21 70 -5 18 11 2 30 -20 22z"/>
<path d="M1010 1850 c-8 -5 -18 -6 -22 -4 -4 3 -5 -2 -1 -11 4 -12 8 -13 13
-5 6 9 9 9 12 -1 7 -18 21 -5 16 15 -2 11 -7 13 -18 6z"/>
<path d="M1135 1847 c-4 -10 -5 -21 -1 -24 10 -10 18 4 13 24 -4 17 -4 17 -12
0z"/>
<path d="M1165 1847 c-4 -10 -5 -21 -1 -24 10 -10 18 4 13 24 -4 17 -4 17 -12
0z"/>
<path d="M1220 1841 c0 -12 5 -21 10 -21 6 0 10 6 10 14 0 8 -4 18 -10 21 -5
3 -10 -3 -10 -14z"/>
<path d="M1250 1841 c0 -12 5 -21 10 -21 6 0 10 6 10 14 0 8 -4 18 -10 21 -5
3 -10 -3 -10 -14z"/>
<path d="M1310 1843 c0 -21 5 -23 49 -23 30 0 51 5 54 13 4 10 6 10 6 0 1 -18
21 -16 21 1 0 10 -15 15 -50 18 -38 2 -50 0 -50 -11 0 -11 -4 -9 -15 5 -14 19
-14 18 -15 -3z"/>
<path d="M1455 1847 c-4 -10 -5 -21 -1 -24 10 -10 18 4 13 24 -4 17 -4 17 -12
0z"/>
<path d="M810 1829 c0 -11 5 -17 10 -14 6 3 10 13 10 21 0 8 -4 14 -10 14 -5
0 -10 -9 -10 -21z"/>
<path d="M1040 1835 c0 -9 9 -15 25 -15 16 0 25 6 25 15 0 18 -16 20 -23 3 -4
-10 -6 -10 -6 0 -1 17 -21 15 -21 -3z"/>
<path d="M1100 1835 c0 -8 5 -15 10 -15 6 0 10 7 10 15 0 8 -4 15 -10 15 -5 0
-10 -7 -10 -15z"/>
<path d="M1190 1835 c0 -8 5 -15 10 -15 6 0 10 7 10 15 0 8 -4 15 -10 15 -5 0
-10 -7 -10 -15z"/>
<path d="M1280 1835 c0 -8 5 -15 10 -15 6 0 10 7 10 15 0 8 -4 15 -10 15 -5 0
-10 -7 -10 -15z"/>
<path d="M1480 1835 c0 -8 5 -15 10 -15 6 0 10 7 10 15 0 8 -4 15 -10 15 -5 0
-10 -7 -10 -15z"/>
<path d="M1510 1835 c0 -9 9 -15 25 -15 16 0 25 6 25 15 0 18 -16 20 -23 3 -4
-10 -6 -10 -6 0 -1 17 -21 15 -21 -3z"/>
<path d="M807 1776 c-6 -16 2 -28 14 -20 12 7 11 34 0 34 -5 0 -11 -6 -14 -14z"/>
<path d="M840 1776 c0 -7 11 -16 25 -18 19 -4 25 -1 25 13 0 21 -16 26 -23 7
-4 -10 -6 -10 -6 0 -1 17 -21 15 -21 -2z"/>
<path d="M1012 1773 c5 -25 78 -26 78 -1 0 23 -9 23 -26 1 -13 -17 -14 -17 -8
0 5 13 1 17 -21 17 -19 0 -26 -4 -23 -17z"/>
<path d="M1100 1775 c0 -8 5 -15 10 -15 6 0 10 7 10 15 0 8 -4 15 -10 15 -5 0
-10 -7 -10 -15z"/>
<path d="M1130 1776 c0 -8 5 -18 10 -21 6 -3 10 3 10 14 0 12 -4 21 -10 21 -5
0 -10 -6 -10 -14z"/>
<path d="M1160 1775 c0 -8 5 -15 10 -15 6 0 10 7 10 15 0 8 -4 15 -10 15 -5 0
-10 -7 -10 -15z"/>
<path d="M1190 1769 c0 -11 5 -17 10 -14 6 3 10 13 10 21 0 8 -4 14 -10 14 -5
0 -10 -9 -10 -21z"/>
<path d="M1220 1769 c0 -11 5 -17 10 -14 6 3 10 13 10 21 0 8 -4 14 -10 14 -5
0 -10 -9 -10 -21z"/>
<path d="M1250 1769 c0 -11 5 -17 10 -14 6 3 10 13 10 21 0 8 -4 14 -10 14 -5
0 -10 -9 -10 -21z"/>
<path d="M1280 1769 c0 -11 5 -17 10 -14 6 3 10 13 10 21 0 8 -4 14 -10 14 -5
0 -10 -9 -10 -21z"/>
<path d="M1313 1773 c1 -15 10 -18 48 -18 26 0 45 3 43 6 -2 4 3 10 12 13 8 3
12 2 9 -3 -3 -5 -1 -12 5 -16 5 -3 10 3 10 14 0 19 -6 21 -51 21 -44 0 -50 -2
-45 -17 6 -17 5 -17 -8 0 -7 9 -16 17 -19 17 -3 0 -5 -8 -4 -17z"/>
<path d="M1450 1776 c0 -8 5 -18 10 -21 6 -3 10 3 10 14 0 12 -4 21 -10 21 -5
0 -10 -6 -10 -14z"/>
<path d="M1480 1777 c0 -20 9 -25 31 -20 10 3 19 12 19 19 0 17 -17 18 -23 2
-4 -10 -6 -10 -6 0 -1 16 -21 16 -21 -1z"/>
<path d="M1540 1775 c0 -8 5 -15 10 -15 6 0 10 7 10 15 0 8 -4 15 -10 15 -5 0
-10 -7 -10 -15z"/>
<path d="M995 1730 c-3 -5 -19 -8 -35 -6 -17 2 -30 -1 -30 -7 0 -7 -4 -7 -12
1 -16 16 -48 15 -48 0 0 -9 -4 -8 -10 2 -9 13 -11 13 -20 0 -6 -10 -10 -11
-10 -2 0 17 -17 15 -23 -2 -5 -12 10 -15 78 -18 49 -2 81 1 77 6 -3 5 2 7 11
3 9 -3 18 -1 21 6 3 9 5 9 5 0 1 -18 31 -16 31 1 0 17 -27 29 -35 16z"/>
<path d="M1066 1715 c-3 -9 0 -15 9 -15 8 0 15 7 15 15 0 8 -4 15 -9 15 -5 0
-11 -7 -15 -15z"/>
<path d="M1100 1715 c0 -8 5 -15 10 -15 6 0 10 7 10 15 0 8 -4 15 -10 15 -5 0
-10 -7 -10 -15z"/>
<path d="M1130 1715 c0 -8 5 -15 10 -15 6 0 10 7 10 15 0 8 -4 15 -10 15 -5 0
-10 -7 -10 -15z"/>
<path d="M1160 1715 c0 -8 5 -15 10 -15 6 0 10 7 10 15 0 8 -4 15 -10 15 -5 0
-10 -7 -10 -15z"/>
<path d="M1190 1715 c0 -8 5 -15 10 -15 6 0 10 7 10 15 0 8 -4 15 -10 15 -5 0
-10 -7 -10 -15z"/>
<path d="M1220 1715 c0 -8 5 -15 10 -15 6 0 10 7 10 15 0 8 -4 15 -10 15 -5 0
-10 -7 -10 -15z"/>
<path d="M1250 1715 c0 -8 5 -15 10 -15 6 0 10 7 10 15 0 8 -4 15 -10 15 -5 0
-10 -7 -10 -15z"/>
<path d="M1280 1715 c0 -8 5 -15 10 -15 6 0 10 7 10 15 0 8 -4 15 -10 15 -5 0
-10 -7 -10 -15z"/>
<path d="M1312 1718 c2 -6 10 -14 18 -16 9 -3 10 0 4 9 -6 11 -5 12 7 3 19
-14 57 -15 65 -2 4 6 10 5 15 -3 8 -12 11 -11 19 1 6 10 10 11 10 3 0 -7 5
-13 10 -13 6 0 10 7 10 15 0 12 -16 15 -81 15 -58 0 -80 -3 -77 -12z"/>
<path d="M1480 1715 c0 -9 9 -15 25 -15 16 0 25 6 25 15 0 18 -16 20 -23 3 -4
-10 -6 -10 -6 0 -1 17 -21 15 -21 -3z"/>
<path d="M1540 1715 c0 -8 5 -15 10 -15 6 0 10 7 10 15 0 8 -4 15 -10 15 -5 0
-10 -7 -10 -15z"/>
<path d="M807 1656 c-6 -15 1 -26 15 -26 4 0 8 9 8 20 0 23 -15 27 -23 6z"/>
<path d="M843 1652 c1 -15 10 -18 54 -18 38 1 52 4 49 13 -3 7 1 10 9 6 8 -3
13 -8 11 -12 -3 -4 17 -7 43 -7 37 1 47 5 48 19 1 9 -1 17 -4 17 -3 0 -12 -8
-19 -17 -13 -17 -14 -17 -8 0 3 9 3 17 -1 17 -4 0 -14 -8 -21 -17 -12 -16 -15
-16 -26 -3 -14 16 -55 20 -75 7 -6 -4 -14 -1 -16 5 -4 10 -8 9 -16 -2 -7 -10
-11 -11 -11 -2 0 6 -4 12 -9 12 -6 0 -9 -8 -8 -18z"/>
<path d="M1070 1656 c0 -23 16 -27 17 -5 1 10 -2 19 -8 19 -5 0 -9 -6 -9 -14z"/>
<path d="M1100 1650 c0 -11 5 -20 10 -20 6 0 10 9 10 20 0 11 -4 20 -10 20 -5
0 -10 -9 -10 -20z"/>
<path d="M1130 1650 c0 -19 11 -26 23 -14 8 8 -3 34 -14 34 -5 0 -9 -9 -9 -20z"/>
<path d="M1163 1650 c1 -20 8 -25 20 -14 7 8 -3 34 -13 34 -5 0 -8 -9 -7 -20z"/>
<path d="M1193 1651 c1 -15 8 -19 37 -17 24 1 36 7 38 19 2 9 -1 17 -7 17 -6
0 -11 -6 -11 -12 0 -9 -4 -8 -10 2 -9 13 -11 13 -20 0 -6 -10 -10 -11 -10 -2
0 6 -4 12 -9 12 -6 0 -9 -9 -8 -19z"/>
<path d="M1280 1650 c0 -11 5 -20 10 -20 6 0 10 9 10 20 0 11 -4 20 -10 20 -5
0 -10 -9 -10 -20z"/>
<path d="M1310 1661 c0 -6 5 -13 11 -17 13 -7 91 -13 84 -5 -3 2 0 10 6 18 9
10 4 13 -30 13 -22 0 -41 -4 -41 -10 0 -5 -5 -10 -11 -10 -5 0 -7 5 -4 10 3 6
1 10 -4 10 -6 0 -11 -4 -11 -9z m86 -8 c-8 -8 -56 -11 -51 -3 3 4 16 8 30 8
14 0 24 -3 21 -5z"/>
<path d="M1426 1653 c-3 -7 0 -15 6 -19 6 -4 8 -3 5 3 -4 6 0 14 9 17 8 3 12
2 9 -3 -3 -5 -1 -12 5 -16 5 -3 10 3 10 14 0 22 -36 26 -44 4z"/>
<path d="M1480 1650 c0 -11 5 -20 10 -20 6 0 10 9 10 20 0 11 -4 20 -10 20 -5
0 -10 -9 -10 -20z"/>
<path d="M1510 1650 c0 -11 5 -20 10 -20 6 0 10 9 10 20 0 11 -4 20 -10 20 -5
0 -10 -9 -10 -20z"/>
<path d="M1540 1650 c0 -11 5 -20 10 -20 6 0 10 9 10 20 0 11 -4 20 -10 20 -5
0 -10 -9 -10 -20z"/>
<path d="M1192 1593 c2 -13 14 -17 45 -18 30 -1 39 2 33 11 -6 6 -7 14 -3 17
3 4 1 7 -6 7 -8 0 -11 -7 -7 -17 6 -17 5 -17 -8 0 -7 9 -17 17 -21 17 -4 0 -4
-8 -1 -17 6 -17 5 -17 -8 0 -17 22 -28 22 -24 0z"/>
<path d="M1280 1601 c0 -15 20 -24 59 -25 31 -2 37 2 38 19 1 11 -1 14 -4 8
-3 -7 -9 -13 -14 -13 -6 0 -7 5 -4 10 3 6 1 10 -5 10 -7 0 -10 -7 -6 -17 6
-17 5 -17 -8 0 -7 9 -17 17 -21 17 -4 0 -4 -8 -1 -17 6 -17 5 -17 -8 0 -15 19
-26 22 -26 8z"/>
<path d="M1482 1593 c2 -9 13 -18 26 -19 16 -3 22 1 22 16 0 25 -9 25 -26 3
-13 -17 -14 -17 -8 0 4 10 1 17 -6 17 -6 0 -10 -7 -8 -17z"/>
<path d="M1540 1589 c0 -11 5 -17 10 -14 6 3 10 13 10 21 0 8 -4 14 -10 14 -5
0 -10 -9 -10 -21z"/>
<path d="M555 1540 c-4 -6 -15 -8 -26 -5 -13 4 -19 2 -19 -8 0 -10 14 -14 53
-13 43 0 53 4 54 18 1 13 -6 18 -27 18 -16 0 -32 -5 -35 -10z"/>
<path d="M627 1536 c-6 -14 0 -26 13 -26 3 0 6 9 7 20 2 23 -12 27 -20 6z"/>
<path d="M657 1536 c-6 -14 0 -26 13 -26 3 0 6 9 7 20 2 23 -12 27 -20 6z"/>
<path d="M690 1530 c0 -11 4 -20 8 -20 4 0 8 9 9 20 1 11 -2 20 -8 20 -5 0 -9
-9 -9 -20z"/>
<path d="M720 1530 c0 -11 5 -20 10 -20 6 0 10 9 10 20 0 11 -4 20 -10 20 -5
0 -10 -9 -10 -20z"/>
<path d="M750 1530 c0 -11 5 -20 10 -20 6 0 10 9 10 20 0 11 -4 20 -10 20 -5
0 -10 -9 -10 -20z"/>
<path d="M780 1530 c0 -19 11 -26 23 -14 8 8 -3 34 -14 34 -5 0 -9 -9 -9 -20z"/>
<path d="M813 1530 c1 -11 5 -20 9 -20 4 0 8 9 8 20 0 11 -4 20 -9 20 -6 0 -9
-9 -8 -20z"/>
<path d="M843 1532 c1 -16 9 -19 52 -17 38 1 51 6 53 18 2 10 -2 17 -8 17 -7
0 -10 -7 -6 -17 6 -17 5 -17 -8 0 -7 9 -17 17 -21 17 -4 0 -4 -8 -1 -17 6 -17
5 -17 -8 0 -7 9 -17 17 -21 17 -4 0 -4 -8 -1 -17 6 -17 5 -17 -8 0 -17 22 -25
22 -23 -1z"/>
<path d="M980 1539 c0 -6 7 -8 16 -5 13 5 14 3 6 -6 -8 -10 -3 -13 22 -14 24
-1 32 3 33 17 2 24 -6 24 -23 2 -13 -17 -14 -17 -8 0 5 13 1 17 -20 17 -14 0
-26 -5 -26 -11z"/>
<path d="M1067 1536 c-6 -14 0 -26 13 -26 3 0 6 9 7 20 2 23 -12 27 -20 6z"/>
<path d="M1100 1530 c0 -11 5 -20 10 -20 6 0 10 9 10 20 0 11 -4 20 -10 20 -5
0 -10 -9 -10 -20z"/>
<path d="M1130 1530 c0 -11 5 -20 10 -20 6 0 10 9 10 20 0 11 -4 20 -10 20 -5
0 -10 -9 -10 -20z"/>
<path d="M1160 1530 c0 -11 5 -20 10 -20 6 0 10 9 10 20 0 11 -4 20 -10 20 -5
0 -10 -9 -10 -20z"/>
<path d="M1190 1530 c0 -11 5 -20 10 -20 6 0 10 9 10 20 0 11 -4 20 -10 20 -5
0 -10 -9 -10 -20z"/>
<path d="M1220 1530 c0 -11 5 -20 10 -20 6 0 10 9 10 20 0 11 -4 20 -10 20 -5
0 -10 -9 -10 -20z"/>
<path d="M1250 1530 c0 -11 5 -20 10 -20 6 0 10 9 10 20 0 11 -4 20 -10 20 -5
0 -10 -9 -10 -20z"/>
<path d="M1280 1530 c0 -11 5 -20 10 -20 6 0 10 9 10 20 0 11 -4 20 -10 20 -5
0 -10 -9 -10 -20z"/>
<path d="M1313 1530 c1 -11 5 -20 9 -20 4 0 8 9 8 20 0 11 -4 20 -9 20 -6 0
-9 -9 -8 -20z"/>
<path d="M1343 1533 c1 -15 10 -18 47 -18 37 0 46 3 47 18 2 15 -1 16 -13 7
-11 -10 -14 -10 -14 0 0 10 -3 10 -14 1 -11 -9 -15 -9 -19 1 -4 10 -6 10 -6
-1 -1 -11 -4 -11 -15 -1 -12 9 -15 8 -13 -7z"/>
<path d="M1457 1543 c-10 -9 -9 -33 1 -33 4 0 8 9 9 20 2 21 0 24 -10 13z"/>
<path d="M1480 1530 c0 -11 4 -20 8 -20 4 0 8 9 9 20 1 11 -2 20 -8 20 -5 0
-9 -9 -9 -20z"/>
<path d="M1507 1536 c-6 -15 1 -26 15 -26 4 0 8 9 8 20 0 23 -15 27 -23 6z"/>
<path d="M1540 1530 c0 -11 5 -20 10 -20 6 0 10 9 10 20 0 11 -4 20 -10 20 -5
0 -10 -9 -10 -20z"/>
<path d="M1630 1527 c0 -16 3 -17 15 -7 8 7 15 9 15 4 0 -5 44 -9 97 -8 71 0
98 4 101 13 3 10 -3 12 -22 9 -15 -3 -26 -1 -26 5 0 6 -7 2 -15 -9 -9 -12 -13
-13 -10 -4 4 11 -1 16 -15 16 -11 0 -20 -4 -20 -9 0 -5 -7 -4 -15 3 -11 9 -15
9 -15 1 0 -7 -5 -9 -11 -5 -7 4 -27 8 -45 9 -28 2 -34 -2 -34 -18z"/>
<path d="M461 1476 c-9 -10 -9 -16 -1 -21 16 -10 31 7 21 23 -6 10 -10 10 -20
-2z"/>
<path d="M493 1473 c1 -17 9 -19 64 -19 55 1 63 3 63 20 0 15 -3 16 -14 7 -11
-9 -15 -9 -19 1 -4 10 -6 10 -6 -1 -1 -11 -4 -11 -18 0 -15 12 -16 12 -9 -5 7
-20 7 -20 -15 0 -22 19 -22 19 -15 0 7 -19 6 -19 -13 -2 -19 17 -20 17 -18 -1z"/>
<path d="M637 1483 c-10 -9 -9 -33 1 -33 4 0 8 9 9 20 2 21 0 24 -10 13z"/>
<path d="M657 1476 c-6 -14 0 -26 13 -26 3 0 6 9 7 20 2 23 -12 27 -20 6z"/>
<path d="M692 1473 c2 -9 13 -18 26 -19 16 -3 22 1 22 16 0 25 -9 25 -26 3
-13 -17 -14 -17 -8 0 4 10 1 17 -6 17 -6 0 -10 -7 -8 -17z"/>
<path d="M750 1470 c0 -11 5 -20 10 -20 6 0 10 9 10 20 0 11 -4 20 -10 20 -5
0 -10 -9 -10 -20z"/>
<path d="M780 1470 c0 -19 11 -26 23 -14 8 8 -3 34 -14 34 -5 0 -9 -9 -9 -20z"/>
<path d="M813 1470 c1 -20 8 -25 20 -14 7 8 -3 34 -13 34 -5 0 -8 -9 -7 -20z"/>
<path d="M843 1470 c1 -20 8 -25 20 -14 7 8 -3 34 -13 34 -5 0 -8 -9 -7 -20z"/>
<path d="M873 1470 c1 -11 5 -20 9 -20 11 0 10 28 -1 35 -6 3 -9 -4 -8 -15z"/>
<path d="M900 1474 c0 -17 9 -19 78 -19 68 -1 78 2 79 17 1 10 -2 18 -8 18 -5
0 -9 -6 -9 -12 0 -10 -3 -9 -9 1 -7 11 -10 11 -15 0 -5 -11 -7 -11 -12 -1 -5
10 -9 10 -20 1 -11 -9 -14 -9 -14 1 0 10 -3 10 -14 1 -11 -9 -15 -9 -19 1 -4
10 -6 10 -6 -1 -1 -11 -4 -11 -16 -1 -12 10 -15 9 -15 -6z"/>
<path d="M1067 1476 c-6 -15 1 -26 15 -26 4 0 8 9 8 20 0 23 -15 27 -23 6z"/>
<path d="M1100 1470 c0 -11 5 -20 10 -20 6 0 10 9 10 20 0 11 -4 20 -10 20 -5
0 -10 -9 -10 -20z"/>
<path d="M1130 1470 c0 -11 5 -20 10 -20 6 0 10 9 10 20 0 11 -4 20 -10 20 -5
0 -10 -9 -10 -20z"/>
<path d="M1160 1471 c0 -13 7 -18 25 -18 30 0 37 8 24 27 -8 13 -10 13 -19 0
-6 -10 -10 -11 -10 -2 0 6 -4 12 -10 12 -5 0 -10 -8 -10 -19z"/>
<path d="M1223 1470 c1 -20 8 -25 20 -14 7 8 -3 34 -13 34 -5 0 -8 -9 -7 -20z"/>
<path d="M1253 1470 c1 -11 5 -20 9 -20 4 0 8 9 8 20 0 11 -4 20 -9 20 -6 0
-9 -9 -8 -20z"/>
<path d="M1280 1471 c0 -11 4 -21 9 -21 18 0 21 18 6 30 -13 10 -15 9 -15 -9z"/>
<path d="M1313 1472 c1 -15 12 -17 94 -17 82 0 93 2 93 17 0 10 -4 18 -10 18
-5 0 -10 -6 -10 -12 0 -9 -4 -8 -10 2 -9 13 -11 13 -20 0 -9 -13 -10 -13 -10
0 0 13 -1 13 -11 0 -8 -11 -12 -12 -16 -2 -2 6 -9 12 -14 12 -6 0 -7 -4 -4
-10 3 -5 2 -10 -4 -10 -5 0 -12 6 -14 13 -4 9 -6 8 -6 -2 -1 -11 -4 -11 -18 0
-15 12 -16 12 -10 -6 7 -19 6 -19 -7 -2 -17 22 -25 22 -23 -1z"/>
<path d="M1510 1470 c0 -11 4 -20 8 -20 4 0 8 9 9 20 1 11 -2 20 -8 20 -5 0
-9 -9 -9 -20z"/>
<path d="M1540 1470 c0 -11 5 -20 10 -20 6 0 10 9 10 20 0 11 -4 20 -10 20 -5
0 -10 -9 -10 -20z"/>
<path d="M1630 1471 c0 -12 5 -21 10 -21 6 0 10 6 10 14 0 8 -4 18 -10 21 -5
3 -10 -3 -10 -14z"/>
<path d="M1660 1470 c0 -11 5 -20 11 -20 5 0 7 6 3 13 -5 7 0 6 11 -3 11 -9
16 -10 11 -2 -8 13 6 17 18 5 4 -5 22 -8 40 -8 24 0 32 4 33 18 2 15 -1 16
-13 7 -11 -10 -14 -10 -14 1 -1 10 -4 8 -11 -3 -5 -10 -15 -18 -22 -18 -8 0
-8 3 2 9 9 6 10 11 2 15 -6 4 -11 2 -11 -4 0 -6 -5 -8 -12 -3 -27 16 -48 13
-48 -7z"/>
<path d="M1807 1483 c-10 -9 -9 -33 1 -33 4 0 8 9 9 20 2 21 0 24 -10 13z"/>
<path d="M1832 1477 c-9 -11 -10 -17 -2 -22 15 -9 23 -1 18 21 -3 15 -4 16
-16 1z"/>
<path d="M1860 1470 c0 -22 15 -27 23 -7 4 10 6 10 6 0 1 -18 31 -16 31 2 0 8
-3 15 -7 16 -5 0 -18 2 -30 5 -18 3 -23 -1 -23 -16z"/>
<path d="M429 1408 c-8 -16 -5 -18 25 -18 29 0 33 3 29 19 -6 24 -41 23 -54
-1z"/>
<path d="M493 1417 c4 -10 7 -21 7 -23 0 -2 7 -4 15 -4 9 0 15 9 14 23 0 12
-3 16 -6 9 -4 -10 -8 -10 -21 0 -13 11 -15 10 -9 -5z"/>
<path d="M546 1414 c-9 -24 -9 -24 34 -24 29 0 40 4 40 15 0 8 -4 15 -10 15
-5 0 -10 -6 -10 -12 0 -9 -3 -9 -8 -2 -13 19 -40 24 -46 8z"/>
<path d="M637 1424 c-15 -16 -6 -34 18 -34 16 0 25 6 25 16 0 10 -6 14 -14 11
-8 -3 -16 -1 -18 4 -2 6 -7 7 -11 3z"/>
<path d="M695 1417 c-4 -10 -5 -21 -1 -24 10 -10 18 4 13 24 -4 17 -4 17 -12
0z"/>
<path d="M720 1410 c0 -11 5 -20 10 -20 6 0 10 9 10 20 0 11 -4 20 -10 20 -5
0 -10 -9 -10 -20z"/>
<path d="M750 1410 c0 -11 5 -20 10 -20 6 0 10 9 10 20 0 11 -4 20 -10 20 -5
0 -10 -9 -10 -20z"/>
<path d="M780 1410 c0 -11 5 -20 10 -20 6 0 10 9 10 20 0 11 -4 20 -10 20 -5
0 -10 -9 -10 -20z"/>
<path d="M815 1417 c-4 -10 -5 -21 -1 -24 10 -10 18 4 13 24 -4 17 -4 17 -12
0z"/>
<path d="M900 1413 c0 -21 5 -23 45 -23 41 0 44 2 34 18 -13 21 -49 24 -49 3
0 -11 -4 -10 -15 5 -14 19 -14 18 -15 -3z"/>
<path d="M988 1424 c-12 -11 19 -34 46 -34 16 0 26 6 26 15 0 8 -4 15 -10 15
-5 0 -10 -4 -10 -10 0 -5 -4 -10 -10 -10 -5 0 -6 8 -3 18 6 14 4 15 -9 4 -11
-9 -17 -9 -20 -2 -2 6 -6 8 -10 4z"/>
<path d="M1130 1411 c0 -12 5 -21 10 -21 6 0 10 6 10 14 0 8 -4 18 -10 21 -5
3 -10 -3 -10 -14z"/>
<path d="M1165 1417 c-4 -10 -5 -21 -1 -24 10 -10 18 4 13 24 -4 17 -4 17 -12
0z"/>
<path d="M1250 1411 c0 -12 5 -21 10 -21 6 0 10 6 10 14 0 8 -4 18 -10 21 -5
3 -10 -3 -10 -14z"/>
<path d="M1280 1411 c0 -12 5 -21 10 -21 6 0 10 6 10 14 0 8 -4 18 -10 21 -5
3 -10 -3 -10 -14z"/>
<path d="M1310 1408 c0 -15 8 -18 48 -18 39 0 48 3 49 18 1 11 -5 18 -18 18
-10 0 -19 -7 -19 -16 0 -13 -2 -13 -9 -1 -14 22 -51 21 -51 -1z"/>
<path d="M1427 1416 c-4 -10 -5 -21 -2 -24 9 -9 17 6 13 25 -3 17 -4 17 -11
-1z"/>
<path d="M1485 1417 c-4 -10 -5 -21 -1 -24 10 -10 18 4 13 24 -4 17 -4 17 -12
0z"/>
<path d="M1515 1417 c-4 -10 -5 -21 -1 -24 10 -10 18 4 13 24 -4 17 -4 17 -12
0z"/>
<path d="M1540 1410 c0 -11 5 -20 10 -20 6 0 10 9 10 20 0 11 -4 20 -10 20 -5
0 -10 -9 -10 -20z"/>
<path d="M1635 1417 c-4 -10 -5 -21 -1 -24 10 -10 18 4 13 24 -4 17 -4 17 -12
0z"/>
<path d="M1836 1421 c-3 -5 -24 -8 -46 -6 -28 2 -40 -1 -40 -10 0 -8 16 -12
50 -12 42 0 50 3 50 18 0 21 -6 24 -14 10z"/>
<path d="M1865 1417 c-4 -10 -5 -21 -1 -24 10 -10 18 4 13 24 -4 17 -4 17 -12
0z"/>
<path d="M1897 1416 c-4 -10 -5 -21 -2 -24 9 -9 17 6 13 25 -3 17 -4 17 -11
-1z"/>
<path d="M840 1405 c0 -8 5 -15 10 -15 6 0 10 7 10 15 0 8 -4 15 -10 15 -5 0
-10 -7 -10 -15z"/>
<path d="M870 1405 c0 -8 5 -15 10 -15 6 0 10 7 10 15 0 8 -4 15 -10 15 -5 0
-10 -7 -10 -15z"/>
<path d="M1070 1405 c0 -8 5 -15 10 -15 6 0 10 7 10 15 0 8 -4 15 -10 15 -5 0
-10 -7 -10 -15z"/>
<path d="M1100 1405 c0 -8 5 -15 10 -15 6 0 10 7 10 15 0 8 -4 15 -10 15 -5 0
-10 -7 -10 -15z"/>
<path d="M1190 1405 c0 -8 5 -15 10 -15 6 0 10 7 10 15 0 8 -4 15 -10 15 -5 0
-10 -7 -10 -15z"/>
<path d="M1220 1405 c0 -8 5 -15 10 -15 6 0 10 7 10 15 0 8 -4 15 -10 15 -5 0
-10 -7 -10 -15z"/>
<path d="M1450 1405 c0 -8 5 -15 10 -15 6 0 10 7 10 15 0 8 -4 15 -10 15 -5 0
-10 -7 -10 -15z"/>
<path d="M430 1351 c0 -12 5 -21 10 -21 6 0 10 6 10 14 0 8 -4 18 -10 21 -5 3
-10 -3 -10 -14z"/>
<path d="M460 1364 c0 -17 17 -36 24 -26 3 5 -1 15 -9 22 -8 7 -15 9 -15 4z"/>
<path d="M493 1351 c1 -21 6 -22 94 -20 86 1 93 3 93 21 0 17 -3 18 -15 8 -12
-10 -15 -10 -15 1 -1 9 -5 8 -15 -5 -14 -19 -15 -19 -15 -2 0 15 -3 16 -14 7
-11 -9 -15 -9 -19 1 -4 10 -6 10 -6 -1 -1 -11 -4 -11 -18 0 -15 12 -16 12 -9
-5 7 -20 7 -20 -15 0 -22 19 -22 19 -15 0 7 -19 6 -19 -13 -2 -19 18 -20 17
-18 -3z"/>
<path d="M695 1357 c-4 -10 -5 -21 -1 -24 10 -10 18 4 13 24 -4 17 -4 17 -12
0z"/>
<path d="M720 1350 c0 -11 5 -20 10 -20 6 0 10 9 10 20 0 11 -4 20 -10 20 -5
0 -10 -9 -10 -20z"/>
<path d="M750 1350 c0 -11 5 -20 10 -20 6 0 10 9 10 20 0 11 -4 20 -10 20 -5
0 -10 -9 -10 -20z"/>
<path d="M780 1350 c0 -11 5 -20 10 -20 6 0 10 9 10 20 0 11 -4 20 -10 20 -5
0 -10 -9 -10 -20z"/>
<path d="M813 1350 c1 -11 5 -20 9 -20 11 0 10 28 -1 35 -6 3 -9 -4 -8 -15z"/>
<path d="M843 1352 c1 -17 10 -20 69 -21 44 -1 68 2 68 9 0 6 -4 8 -10 5 -6
-4 -7 1 -3 12 6 15 4 16 -9 5 -13 -10 -17 -10 -21 0 -4 10 -6 10 -6 -1 -1 -11
-4 -11 -16 -1 -12 10 -15 9 -15 -6 0 -17 -1 -17 -15 2 -10 13 -14 14 -15 5 0
-11 -3 -11 -14 -1 -12 9 -15 8 -13 -8z"/>
<path d="M986 1361 c-4 -6 -2 -11 4 -11 6 0 8 -5 4 -11 -8 -14 48 -8 58 6 16
21 7 27 -12 10 -20 -18 -21 -18 -14 1 5 16 4 16 -5 4 -9 -12 -12 -13 -20 -1
-6 9 -11 10 -15 2z"/>
<path d="M1070 1350 c-9 -16 -8 -20 5 -20 8 0 15 9 15 20 0 11 -2 20 -5 20 -2
0 -9 -9 -15 -20z"/>
<path d="M1100 1350 c0 -11 5 -20 10 -20 6 0 10 9 10 20 0 11 -4 20 -10 20 -5
0 -10 -9 -10 -20z"/>
<path d="M1130 1350 c0 -11 5 -20 10 -20 6 0 10 9 10 20 0 11 -4 20 -10 20 -5
0 -10 -9 -10 -20z"/>
<path d="M1160 1350 c0 -11 5 -20 10 -20 6 0 10 9 10 20 0 11 -4 20 -10 20 -5
0 -10 -9 -10 -20z"/>
<path d="M1190 1350 c0 -11 5 -20 10 -20 6 0 10 9 10 20 0 11 -4 20 -10 20 -5
0 -10 -9 -10 -20z"/>
<path d="M1220 1350 c0 -11 5 -20 10 -20 6 0 10 9 10 20 0 11 -4 20 -10 20 -5
0 -10 -9 -10 -20z"/>
<path d="M1250 1351 c0 -12 5 -21 10 -21 6 0 10 6 10 14 0 8 -4 18 -10 21 -5
3 -10 -3 -10 -14z"/>
<path d="M1280 1351 c0 -12 5 -21 10 -21 6 0 10 6 10 14 0 8 -4 18 -10 21 -5
3 -10 -3 -10 -14z"/>
<path d="M1310 1353 c0 -18 7 -21 65 -22 61 -1 65 0 65 21 -1 21 -2 21 -11 6
-5 -10 -14 -18 -19 -18 -5 0 -6 8 -3 18 6 16 6 16 -11 -1 -17 -17 -19 -17 -37
-1 -13 12 -19 13 -19 4 0 -10 -3 -10 -15 0 -12 10 -15 9 -15 -7z"/>
<path d="M1455 1357 c-4 -10 -5 -21 -1 -24 10 -10 18 4 13 24 -4 17 -4 17 -12
0z"/>
<path d="M1480 1350 c0 -11 5 -20 10 -20 6 0 10 9 10 20 0 11 -4 20 -10 20 -5
0 -10 -9 -10 -20z"/>
<path d="M1510 1350 c0 -11 5 -20 10 -20 6 0 10 9 10 20 0 11 -4 20 -10 20 -5
0 -10 -9 -10 -20z"/>
<path d="M1540 1350 c0 -11 6 -20 14 -20 9 0 12 7 9 20 -3 11 -9 20 -14 20 -5
0 -9 -9 -9 -20z"/>
<path d="M1660 1360 c0 -5 -7 -7 -15 -4 -9 4 -15 0 -15 -10 0 -17 24 -17 49
-2 8 5 12 5 9 0 -4 -5 25 -10 63 -10 51 -1 69 2 69 12 0 7 -8 13 -17 12 -10 0
-33 2 -50 5 -18 2 -33 1 -33 -4 0 -4 -13 -4 -30 1 -17 5 -30 5 -30 0z"/>
<path d="M1835 1357 c-4 -10 -5 -21 -1 -24 10 -10 18 4 13 24 -4 17 -4 17 -12
0z"/>
<path d="M1927 1364 c-4 -4 -7 -14 -7 -23 0 -11 3 -12 11 -4 6 6 10 16 7 23
-2 6 -7 8 -11 4z"/>
<path d="M404 1340 c0 -11 4 -20 8 -20 4 0 8 9 8 20 0 11 -4 20 -8 20 -4 0 -8
-9 -8 -20z"/>
<path d="M1860 1345 c0 -8 5 -15 10 -15 6 0 10 7 10 15 0 8 -4 15 -10 15 -5 0
-10 -7 -10 -15z"/>
<path d="M430 1291 c0 -12 5 -21 10 -21 6 0 10 6 10 14 0 8 -4 18 -10 21 -5 3
-10 -3 -10 -14z"/>
<path d="M489 1290 c0 -10 -2 -11 -6 -2 -7 17 -23 15 -23 -3 0 -12 16 -15 80
-15 64 0 80 3 80 15 0 9 -10 15 -27 16 -16 0 -45 2 -65 3 -28 1 -38 -2 -39
-14z"/>
<path d="M633 1292 c-8 -19 7 -29 17 -12 7 10 10 11 10 3 0 -7 5 -13 10 -13 6
0 10 8 10 18 0 21 -40 25 -47 4z"/>
<path d="M695 1297 c-4 -10 -5 -21 -1 -24 10 -10 18 4 13 24 -4 17 -4 17 -12
0z"/>
<path d="M810 1291 c0 -12 5 -21 10 -21 6 0 10 6 10 14 0 8 -4 18 -10 21 -5 3
-10 -3 -10 -14z"/>
<path d="M840 1293 c0 -18 6 -23 25 -23 25 0 35 23 15 35 -5 3 -10 -2 -10 -11
0 -16 -1 -16 -15 2 -14 19 -14 18 -15 -3z"/>
<path d="M975 1302 c-11 -2 -23 -9 -27 -16 -6 -8 -8 -7 -8 2 0 6 -9 12 -20 12
-11 0 -20 -7 -20 -15 0 -12 16 -15 80 -15 64 0 80 3 80 15 0 8 -6 15 -12 16
-7 0 -22 2 -33 3 -11 1 -29 0 -40 -2z"/>
<path d="M1105 1297 c-4 -10 -5 -21 -1 -24 10 -10 18 4 13 24 -4 17 -4 17 -12
0z"/>
<path d="M1359 1301 c-8 -2 -17 -9 -21 -15 -5 -8 -8 -7 -8 2 0 6 -4 12 -10 12
-5 0 -10 -7 -10 -15 0 -12 14 -15 65 -15 61 0 65 1 65 23 -1 21 -1 22 -15 3
-11 -15 -15 -16 -15 -5 0 14 -24 19 -51 10z"/>
<path d="M1630 1291 c0 -12 5 -21 10 -21 6 0 10 6 10 14 0 8 -4 18 -10 21 -5
3 -10 -3 -10 -14z"/>
<path d="M400 1285 c0 -8 5 -15 10 -15 6 0 10 7 10 15 0 8 -4 15 -10 15 -5 0
-10 -7 -10 -15z"/>
<path d="M720 1285 c0 -8 5 -15 10 -15 6 0 10 7 10 15 0 8 -4 15 -10 15 -5 0
-10 -7 -10 -15z"/>
<path d="M750 1285 c0 -8 5 -15 10 -15 6 0 10 7 10 15 0 8 -4 15 -10 15 -5 0
-10 -7 -10 -15z"/>
<path d="M780 1285 c0 -8 5 -15 10 -15 6 0 10 7 10 15 0 8 -4 15 -10 15 -5 0
-10 -7 -10 -15z"/>
<path d="M1070 1285 c0 -8 5 -15 10 -15 6 0 10 7 10 15 0 8 -4 15 -10 15 -5 0
-10 -7 -10 -15z"/>
<path d="M1130 1285 c0 -8 5 -15 10 -15 6 0 10 7 10 15 0 8 -4 15 -10 15 -5 0
-10 -7 -10 -15z"/>
<path d="M1160 1285 c0 -8 5 -15 10 -15 6 0 10 7 10 15 0 8 -4 15 -10 15 -5 0
-10 -7 -10 -15z"/>
<path d="M1190 1285 c0 -8 5 -15 10 -15 6 0 10 7 10 15 0 8 -4 15 -10 15 -5 0
-10 -7 -10 -15z"/>
<path d="M1220 1285 c0 -8 5 -15 10 -15 6 0 10 7 10 15 0 8 -4 15 -10 15 -5 0
-10 -7 -10 -15z"/>
<path d="M1250 1285 c0 -8 5 -15 10 -15 6 0 10 7 10 15 0 8 -4 15 -10 15 -5 0
-10 -7 -10 -15z"/>
<path d="M1280 1285 c0 -8 5 -15 10 -15 6 0 10 7 10 15 0 8 -4 15 -10 15 -5 0
-10 -7 -10 -15z"/>
<path d="M1450 1285 c0 -8 5 -15 10 -15 6 0 10 7 10 15 0 8 -4 15 -10 15 -5 0
-10 -7 -10 -15z"/>
<path d="M1480 1286 c0 -7 11 -16 25 -18 19 -4 25 -1 25 13 0 21 -16 26 -23 7
-4 -10 -6 -10 -6 0 -1 17 -21 15 -21 -2z"/>
<path d="M1685 1291 c-6 -11 9 -23 19 -14 9 9 7 23 -3 23 -6 0 -12 -4 -16 -9z"/>
<path d="M1720 1285 c0 -8 5 -15 10 -15 6 0 10 7 10 15 0 8 -4 15 -10 15 -5 0
-10 -7 -10 -15z"/>
<path d="M1750 1285 c0 -10 11 -14 35 -13 19 1 35 6 35 13 0 7 -16 12 -35 13
-24 1 -35 -3 -35 -13z"/>
<path d="M1830 1285 c0 -8 5 -15 10 -15 6 0 10 7 10 15 0 8 -4 15 -10 15 -5 0
-10 -7 -10 -15z"/>
<path d="M1860 1285 c0 -7 11 -12 25 -12 14 0 25 5 25 12 0 7 -11 13 -25 13
-14 0 -25 -6 -25 -13z"/>
<path d="M1920 1285 c0 -8 5 -15 10 -15 6 0 10 7 10 15 0 8 -4 15 -10 15 -5 0
-10 -7 -10 -15z"/>
<path d="M1950 1285 c0 -8 5 -15 10 -15 6 0 10 7 10 15 0 8 -4 15 -10 15 -5 0
-10 -7 -10 -15z"/>
<path d="M478 1242 c-22 -4 -24 -32 -2 -32 9 0 12 5 8 13 -6 10 -4 10 7 0 8
-9 44 -13 101 -13 72 0 88 3 88 15 0 18 -20 20 -21 3 0 -7 -4 -4 -9 7 -7 19
-8 19 -15 2 -5 -11 -10 -14 -14 -8 -7 10 -110 20 -143 13z"/>
<path d="M840 1233 c0 -23 2 -23 125 -23 123 0 125 0 125 23 -1 21 -1 21 -14
4 -11 -14 -15 -15 -19 -5 -4 10 -8 10 -16 -2 -9 -13 -11 -13 -11 0 0 20 -68
20 -81 -1 -6 -10 -9 -10 -9 -1 0 6 -9 12 -20 12 -11 0 -20 -5 -20 -12 0 -6 -7
-3 -15 8 -14 19 -14 19 -15 0 0 -20 0 -20 -15 0 -14 19 -14 18 -15 -3z"/>
<path d="M1340 1230 c0 -13 -1 -13 -10 0 -9 13 -11 13 -20 0 -6 -10 -10 -11
-10 -2 0 6 -4 12 -10 12 -5 0 -10 -7 -10 -15 0 -12 16 -15 84 -15 75 0 84 2
80 18 -7 23 -104 25 -104 2z"/>
<path d="M1630 1231 c0 -12 5 -21 10 -21 6 0 10 6 10 14 0 8 -4 18 -10 21 -5
3 -10 -3 -10 -14z"/>
<path d="M1979 1233 c0 -10 -3 -13 -6 -5 -7 17 -23 15 -23 -3 0 -9 9 -15 25
-15 15 0 25 6 25 14 0 22 -20 30 -21 9z"/>
<path d="M370 1225 c0 -8 5 -15 10 -15 6 0 10 7 10 15 0 8 -4 15 -10 15 -5 0
-10 -7 -10 -15z"/>
<path d="M400 1225 c0 -8 5 -15 10 -15 6 0 10 7 10 15 0 8 -4 15 -10 15 -5 0
-10 -7 -10 -15z"/>
<path d="M430 1225 c0 -8 5 -15 10 -15 6 0 10 7 10 15 0 8 -4 15 -10 15 -5 0
-10 -7 -10 -15z"/>
<path d="M690 1225 c0 -8 5 -15 10 -15 6 0 10 7 10 15 0 8 -4 15 -10 15 -5 0
-10 -7 -10 -15z"/>
<path d="M720 1225 c0 -8 5 -15 10 -15 6 0 10 7 10 15 0 8 -4 15 -10 15 -5 0
-10 -7 -10 -15z"/>
<path d="M750 1225 c0 -8 5 -15 10 -15 6 0 10 7 10 15 0 8 -4 15 -10 15 -5 0
-10 -7 -10 -15z"/>
<path d="M780 1225 c0 -8 5 -15 10 -15 6 0 10 7 10 15 0 8 -4 15 -10 15 -5 0
-10 -7 -10 -15z"/>
<path d="M810 1225 c0 -8 5 -15 10 -15 6 0 10 7 10 15 0 8 -4 15 -10 15 -5 0
-10 -7 -10 -15z"/>
<path d="M1100 1225 c0 -8 5 -15 10 -15 6 0 10 7 10 15 0 8 -4 15 -10 15 -5 0
-10 -7 -10 -15z"/>
<path d="M1130 1225 c0 -8 5 -15 10 -15 6 0 10 7 10 15 0 8 -4 15 -10 15 -5 0
-10 -7 -10 -15z"/>
<path d="M1160 1225 c0 -8 5 -15 10 -15 6 0 10 7 10 15 0 8 -4 15 -10 15 -5 0
-10 -7 -10 -15z"/>
<path d="M1190 1225 c0 -11 11 -15 40 -15 29 0 40 4 40 15 0 8 -4 15 -10 15
-5 0 -10 -6 -10 -12 0 -9 -4 -8 -10 2 -9 13 -11 13 -20 0 -6 -10 -10 -11 -10
-2 0 6 -4 12 -10 12 -5 0 -10 -7 -10 -15z"/>
<path d="M1660 1225 c0 -8 5 -15 10 -15 6 0 10 7 10 15 0 8 -4 15 -10 15 -5 0
-10 -7 -10 -15z"/>
<path d="M1720 1225 c0 -8 5 -15 10 -15 6 0 10 7 10 15 0 8 -4 15 -10 15 -5 0
-10 -7 -10 -15z"/>
<path d="M1750 1225 c0 -10 11 -15 35 -15 24 0 35 5 35 15 0 10 -11 15 -35 15
-24 0 -35 -5 -35 -15z"/>
<path d="M1830 1225 c0 -8 5 -15 10 -15 6 0 10 7 10 15 0 8 -4 15 -10 15 -5 0
-10 -7 -10 -15z"/>
<path d="M1860 1225 c0 -8 5 -15 10 -15 6 0 10 7 10 15 0 8 -4 15 -10 15 -5 0
-10 -7 -10 -15z"/>
<path d="M1890 1225 c0 -8 5 -15 10 -15 6 0 10 7 10 15 0 8 -4 15 -10 15 -5 0
-10 -7 -10 -15z"/>
<path d="M1920 1225 c0 -8 5 -15 10 -15 6 0 10 7 10 15 0 8 -4 15 -10 15 -5 0
-10 -7 -10 -15z"/>
<path d="M535 1182 c-61 -3 -81 -10 -69 -22 8 -8 102 -14 182 -11 41 1 46 31
5 32 -16 0 -37 1 -48 2 -11 1 -42 1 -70 -1z"/>
<path d="M367 1174 c-8 -8 1 -24 14 -24 5 0 9 7 9 15 0 15 -12 20 -23 9z"/>
<path d="M400 1165 c0 -8 5 -15 10 -15 6 0 10 7 10 15 0 8 -4 15 -10 15 -5 0
-10 -7 -10 -15z"/>
<path d="M430 1165 c0 -8 6 -15 13 -15 8 0 14 7 14 15 0 8 -6 15 -14 15 -7 0
-13 -7 -13 -15z"/>
<path d="M690 1165 c0 -8 5 -15 10 -15 6 0 10 7 10 15 0 8 -4 15 -10 15 -5 0
-10 -7 -10 -15z"/>
<path d="M750 1165 c0 -8 5 -15 10 -15 6 0 10 7 10 15 0 8 -4 15 -10 15 -5 0
-10 -7 -10 -15z"/>
<path d="M1600 1165 c0 -8 5 -15 10 -15 6 0 10 7 10 15 0 8 -4 15 -10 15 -5 0
-10 -7 -10 -15z"/>
<path d="M1630 1165 c0 -8 5 -15 10 -15 6 0 10 7 10 15 0 8 -4 15 -10 15 -5 0
-10 -7 -10 -15z"/>
<path d="M1660 1163 c0 -7 5 -13 10 -13 6 0 10 4 10 8 0 4 9 8 20 9 11 1 19
-1 16 -5 -2 -4 27 -8 65 -10 54 -2 69 0 69 11 0 11 -21 13 -95 13 -71 0 -95
-3 -95 -13z"/>
<path d="M1890 1165 c0 -8 5 -15 10 -15 6 0 10 7 10 15 0 8 -4 15 -10 15 -5 0
-10 -7 -10 -15z"/>
<path d="M1920 1165 c0 -8 5 -15 10 -15 6 0 10 7 10 15 0 8 -4 15 -10 15 -5 0
-10 -7 -10 -15z"/>
<path d="M1950 1165 c0 -8 5 -15 10 -15 6 0 10 7 10 15 0 8 -4 15 -10 15 -5 0
-10 -7 -10 -15z"/>
<path d="M1980 1165 c0 -8 5 -15 10 -15 6 0 10 7 10 15 0 8 -4 15 -10 15 -5 0
-10 -7 -10 -15z"/>
<path d="M930 1120 c0 -7 -7 -10 -15 -6 -10 4 -15 -1 -15 -16 0 -15 3 -18 13
-11 6 5 56 9 110 9 64 -1 97 3 97 10 0 7 -30 11 -84 11 -46 0 -88 3 -95 7 -6
4 -11 2 -11 -4z"/>
<path d="M370 1100 c0 -11 5 -20 10 -20 6 0 10 9 10 20 0 11 -4 20 -10 20 -5
0 -10 -9 -10 -20z"/>
<path d="M400 1105 c0 -8 5 -15 10 -15 6 0 10 7 10 15 0 8 -4 15 -10 15 -5 0
-10 -7 -10 -15z"/>
<path d="M430 1105 c0 -8 5 -15 10 -15 6 0 10 7 10 15 0 8 -4 15 -10 15 -5 0
-10 -7 -10 -15z"/>
<path d="M460 1105 c0 -8 6 -15 13 -16 6 0 22 -2 33 -3 19 -2 20 0 11 16 -15
23 -31 24 -23 1 6 -17 5 -17 -8 0 -16 21 -26 22 -26 2z"/>
<path d="M547 1105 c-4 -8 -2 -17 3 -20 6 -4 10 -1 10 4 0 6 5 10 11 9 6 -2
14 3 16 10 3 7 -4 12 -15 12 -11 0 -22 -7 -25 -15z"/>
<path d="M596 1105 c-4 -12 3 -15 34 -15 37 0 60 14 45 28 -3 3 -10 0 -15 -8
-7 -10 -10 -11 -10 -2 0 17 -47 15 -54 -3z"/>
<path d="M686 1104 c-4 -10 -1 -14 6 -12 15 5 23 28 10 28 -5 0 -13 -7 -16
-16z"/>
<path d="M720 1106 c0 -8 5 -18 10 -21 6 -3 10 3 10 14 0 12 -4 21 -10 21 -5
0 -10 -6 -10 -14z"/>
<path d="M1130 1105 c0 -8 5 -15 10 -15 6 0 10 7 10 15 0 8 -4 15 -10 15 -5 0
-10 -7 -10 -15z"/>
<path d="M1160 1105 c0 -8 5 -15 10 -15 6 0 10 7 10 15 0 8 -4 15 -10 15 -5 0
-10 -7 -10 -15z"/>
<path d="M1190 1105 c0 -8 5 -15 10 -15 6 0 10 7 10 15 0 8 -4 15 -10 15 -5 0
-10 -7 -10 -15z"/>
<path d="M1220 1105 c0 -15 25 -16 48 -2 6 5 12 5 12 0 0 -10 141 -10 158 0 7
5 12 4 12 -2 0 -6 5 -11 10 -11 6 0 10 7 10 15 0 12 -22 14 -125 14 -102 0
-125 -2 -125 -14z"/>
<path d="M1480 1106 c0 -8 10 -13 25 -13 15 0 25 5 25 13 0 8 -10 14 -25 14
-15 0 -25 -6 -25 -14z"/>
<path d="M1540 1105 c0 -8 5 -15 10 -15 6 0 10 7 10 15 0 8 -4 15 -10 15 -5 0
-10 -7 -10 -15z"/>
<path d="M1570 1105 c0 -8 5 -15 10 -15 6 0 10 7 10 15 0 8 -4 15 -10 15 -5 0
-10 -7 -10 -15z"/>
<path d="M1630 1105 c0 -8 5 -15 10 -15 6 0 10 7 10 15 0 8 -4 15 -10 15 -5 0
-10 -7 -10 -15z"/>
<path d="M1660 1109 c0 -4 5 -11 10 -14 6 -3 10 -1 10 5 0 6 5 8 11 4 19 -11
94 -11 101 0 5 8 8 7 8 -1 0 -7 5 -13 10 -13 6 0 10 7 10 15 0 13 -14 15 -80
14 -44 -1 -80 -5 -80 -10z"/>
<path d="M1830 1105 c0 -7 16 -11 40 -11 52 1 52 23 0 23 -24 0 -40 -5 -40
-12z"/>
<path d="M1920 1105 c0 -8 5 -15 10 -15 6 0 10 7 10 15 0 8 -4 15 -10 15 -5 0
-10 -7 -10 -15z"/>
<path d="M1950 1105 c0 -8 5 -15 10 -15 6 0 10 7 10 15 0 8 -4 15 -10 15 -5 0
-10 -7 -10 -15z"/>
<path d="M1980 1105 c0 -8 5 -15 10 -15 6 0 10 7 10 15 0 8 -4 15 -10 15 -5 0
-10 -7 -10 -15z"/>
<path d="M370 1040 c0 -11 5 -20 10 -20 6 0 10 9 10 20 0 11 -4 20 -10 20 -5
0 -10 -9 -10 -20z"/>
<path d="M400 1040 c0 -11 5 -20 10 -20 6 0 10 9 10 20 0 11 -4 20 -10 20 -5
0 -10 -9 -10 -20z"/>
<path d="M433 1040 c1 -11 5 -20 9 -20 4 0 8 9 8 20 0 11 -4 20 -9 20 -6 0 -9
-9 -8 -20z"/>
<path d="M463 1043 c1 -16 12 -18 77 -18 65 0 76 2 77 17 2 23 -6 23 -23 1
-13 -17 -14 -17 -8 0 5 13 1 17 -16 17 -17 0 -21 -4 -16 -17 5 -16 5 -16 -6
-3 -7 9 -24 16 -36 17 -18 2 -22 -2 -18 -15 5 -15 5 -15 -8 1 -7 9 -16 17 -19
17 -3 0 -5 -8 -4 -17z"/>
<path d="M630 1040 c0 -12 7 -17 23 -16 32 2 33 34 1 34 -16 0 -24 -6 -24 -18z"/>
<path d="M690 1040 c0 -11 4 -20 8 -20 4 0 8 9 9 20 1 11 -2 20 -8 20 -5 0 -9
-9 -9 -20z"/>
<path d="M720 1040 c0 -11 5 -20 10 -20 6 0 10 9 10 20 0 11 -4 20 -10 20 -5
0 -10 -9 -10 -20z"/>
<path d="M841 1046 c-15 -18 -1 -27 30 -20 13 3 45 7 70 8 25 2 52 7 59 11 9
6 11 4 5 -5 -5 -8 -3 -11 5 -8 8 2 16 10 18 16 5 16 -60 16 -76 0 -9 -9 -12
-9 -12 0 0 7 -5 12 -11 12 -5 0 -7 -4 -4 -10 3 -5 1 -10 -4 -10 -6 0 -11 6
-11 13 0 8 -4 7 -10 -3 -6 -10 -10 -11 -10 -2 0 16 -35 15 -49 -2z"/>
<path d="M1036 1044 c-4 -10 -1 -14 6 -12 15 5 23 28 10 28 -5 0 -13 -7 -16
-16z"/>
<path d="M1070 1045 c0 -8 5 -15 10 -15 6 0 10 7 10 15 0 8 -4 15 -10 15 -5 0
-10 -7 -10 -15z"/>
<path d="M1100 1045 c0 -8 5 -15 10 -15 6 0 10 7 10 15 0 8 -4 15 -10 15 -5 0
-10 -7 -10 -15z"/>
<path d="M1132 1048 c2 -6 10 -14 16 -16 7 -2 10 2 6 12 -7 18 -28 22 -22 4z"/>
<path d="M1162 1048 c2 -6 10 -14 16 -16 7 -2 10 2 6 12 -7 18 -28 22 -22 4z"/>
<path d="M1220 1044 c0 -8 10 -14 25 -14 15 0 25 6 25 14 0 8 -10 14 -25 14
-15 0 -25 -6 -25 -14z"/>
<path d="M1280 1048 c0 -11 21 -14 95 -14 64 1 95 4 95 12 0 7 -21 12 -55 12
-34 0 -55 -5 -55 -12 0 -7 -3 -7 -8 -1 -12 16 -72 18 -72 3z"/>
<path d="M1480 1045 c0 -8 5 -15 10 -15 6 0 10 7 10 15 0 8 -4 15 -10 15 -5 0
-10 -7 -10 -15z"/>
<path d="M1510 1045 c0 -8 9 -15 19 -15 21 0 37 17 26 28 -3 3 -10 0 -15 -8
-7 -10 -10 -11 -10 -2 0 6 -4 12 -10 12 -5 0 -10 -7 -10 -15z"/>
<path d="M1566 1044 c-4 -10 -1 -14 6 -12 15 5 23 28 10 28 -5 0 -13 -7 -16
-16z"/>
<path d="M1600 1045 c0 -8 5 -15 10 -15 6 0 10 7 10 15 0 8 -4 15 -10 15 -5 0
-10 -7 -10 -15z"/>
<path d="M1630 1045 c0 -8 5 -15 10 -15 6 0 10 7 10 15 0 8 -4 15 -10 15 -5 0
-10 -7 -10 -15z"/>
<path d="M1660 1045 c0 -8 7 -15 16 -15 9 0 12 5 8 12 -5 7 -3 8 7 2 23 -14
129 -13 129 1 0 9 -25 13 -80 14 -66 1 -80 -1 -80 -14z"/>
<path d="M1830 1045 c0 -8 9 -15 19 -15 21 0 37 17 26 28 -3 3 -10 0 -15 -8
-7 -10 -10 -11 -10 -2 0 6 -4 12 -10 12 -5 0 -10 -7 -10 -15z"/>
<path d="M1886 1045 c-4 -11 0 -14 17 -11 12 3 25 5 30 5 4 1 7 6 7 12 0 8 -5
8 -15 -1 -10 -9 -15 -9 -15 -1 0 16 -17 14 -24 -4z"/>
<path d="M1950 1039 c0 -11 5 -17 10 -14 6 3 10 13 10 21 0 8 -4 14 -10 14 -5
0 -10 -9 -10 -21z"/>
<path d="M400 982 c0 -16 8 -19 64 -18 58 1 62 2 52 18 -14 23 -30 23 -22 1 6
-17 5 -17 -8 0 -15 20 -30 23 -23 4 3 -8 -3 -14 -15 -14 -10 -1 -22 5 -25 13
-7 20 -23 17 -23 -4z"/>
<path d="M520 991 c0 -15 33 -24 96 -25 51 -1 60 2 61 17 1 9 -1 17 -4 17 -3
0 -12 -8 -19 -17 -13 -17 -14 -17 -8 0 3 9 3 17 -1 17 -4 0 -14 -8 -21 -17
-13 -17 -14 -17 -8 0 4 10 1 17 -6 17 -6 0 -8 -4 -5 -10 3 -5 1 -10 -4 -10 -6
0 -11 5 -11 10 0 6 -9 10 -21 10 -16 0 -20 -4 -15 -17 6 -17 5 -17 -8 0 -14
18 -26 22 -26 8z"/>
<path d="M690 980 c0 -11 4 -20 8 -20 4 0 8 9 9 20 1 11 -2 20 -8 20 -5 0 -9
-9 -9 -20z"/>
<path d="M720 980 c0 -11 5 -20 10 -20 6 0 10 9 10 20 0 11 -4 20 -10 20 -5 0
-10 -9 -10 -20z"/>
<path d="M810 990 c0 -5 -1 -13 -2 -17 -2 -3 31 -5 72 -3 41 2 99 3 128 3 38
-1 52 3 52 13 0 8 -4 14 -10 14 -5 0 -10 -5 -10 -11 0 -8 -5 -8 -15 1 -8 7
-15 8 -15 3 0 -5 -9 -9 -20 -9 -11 0 -20 4 -20 9 0 6 -5 5 -12 0 -15 -11 -58
-11 -75 0 -7 5 -13 4 -13 0 0 -5 -9 -9 -20 -9 -11 0 -20 4 -20 8 0 4 -4 8 -10
8 -5 0 -10 -4 -10 -10z"/>
<path d="M1070 985 c0 -8 5 -15 10 -15 6 0 10 7 10 15 0 8 -4 15 -10 15 -5 0
-10 -7 -10 -15z"/>
<path d="M1100 985 c0 -8 5 -15 10 -15 6 0 10 7 10 15 0 8 -4 15 -10 15 -5 0
-10 -7 -10 -15z"/>
<path d="M1133 981 c0 -11 5 -17 9 -15 11 7 10 34 -1 34 -6 0 -9 -9 -8 -19z"/>
<path d="M1193 981 c0 -11 5 -17 9 -15 11 7 10 34 -1 34 -6 0 -9 -9 -8 -19z"/>
<path d="M1238 992 c-26 -5 -22 -22 5 -18 12 1 21 6 20 10 -2 11 -6 13 -25 8z"/>
<path d="M1280 987 c0 -10 26 -13 95 -12 61 0 95 4 95 11 0 8 -87 11 -110 3
-3 -1 -9 0 -15 1 -42 9 -65 8 -65 -3z"/>
<path d="M1484 989 c-2 -4 0 -10 6 -14 5 -3 10 -3 10 1 0 3 7 1 15 -6 12 -10
15 -9 15 7 0 12 -7 19 -21 19 -11 0 -22 -4 -25 -7z"/>
<path d="M1570 986 c0 -23 16 -27 17 -5 1 10 -2 19 -8 19 -5 0 -9 -6 -9 -14z"/>
<path d="M1630 985 c0 -8 5 -15 10 -15 6 0 10 7 10 15 0 8 -4 15 -10 15 -5 0
-10 -7 -10 -15z"/>
<path d="M1667 993 c-17 -16 -2 -20 73 -20 55 0 80 4 80 12 0 8 -14 12 -35 11
-19 0 -35 -5 -35 -11 0 -5 -5 -3 -10 5 -6 9 -13 11 -17 5 -9 -12 -36 -13 -44
-2 -3 4 -8 4 -12 0z"/>
<path d="M1830 985 c0 -8 9 -15 19 -15 21 0 37 17 26 28 -3 3 -10 0 -15 -8 -7
-10 -10 -11 -10 -2 0 6 -4 12 -10 12 -5 0 -10 -7 -10 -15z"/>
<path d="M1886 984 c-4 -10 -1 -14 6 -12 15 5 23 28 10 28 -5 0 -13 -7 -16
-16z"/>
<path d="M1916 984 c-8 -20 6 -22 34 -8 14 8 23 14 20 15 -31 6 -50 3 -54 -7z"/>
<path d="M407 934 c-4 -4 -7 -14 -7 -23 0 -11 3 -12 11 -4 6 6 10 16 7 23 -2
6 -7 8 -11 4z"/>
<path d="M430 920 c0 -11 5 -20 10 -20 6 0 10 9 10 20 0 11 -4 20 -10 20 -5 0
-10 -9 -10 -20z"/>
<path d="M460 926 c0 -17 14 -29 23 -20 8 8 -3 34 -14 34 -5 0 -9 -6 -9 -14z"/>
<path d="M493 922 c1 -16 10 -18 77 -18 67 1 76 3 78 19 1 18 0 18 -19 1 -15
-13 -18 -14 -14 -3 8 21 -55 20 -72 -1 -12 -13 -15 -13 -27 3 -17 22 -25 22
-23 -1z"/>
<path d="M657 926 c-6 -14 0 -26 13 -26 3 0 6 9 7 20 2 23 -12 27 -20 6z"/>
<path d="M690 926 c0 -23 16 -27 17 -5 1 10 -2 19 -8 19 -5 0 -9 -6 -9 -14z"/>
<path d="M720 920 c0 -11 5 -20 10 -20 6 0 10 9 10 20 0 11 -4 20 -10 20 -5 0
-10 -9 -10 -20z"/>
<path d="M805 930 c-4 -6 -3 -16 3 -22 6 -6 12 -6 17 2 4 6 3 16 -3 22 -6 6
-12 6 -17 -2z"/>
<path d="M840 920 c0 -19 3 -21 12 -12 9 9 9 15 0 24 -9 9 -12 7 -12 -12z"/>
<path d="M870 922 c0 -9 12 -13 38 -11 21 2 43 0 50 -5 8 -5 12 -1 12 11 0 15
-8 18 -50 18 -35 0 -50 -4 -50 -13z"/>
<path d="M1105 930 c-3 -5 -12 -7 -20 -3 -8 3 -15 0 -15 -6 0 -6 11 -11 25
-11 16 0 25 6 25 15 0 17 -6 19 -15 5z"/>
<path d="M1137 934 c-4 -4 -7 -14 -7 -23 0 -11 3 -12 11 -4 6 6 10 16 7 23 -2
6 -7 8 -11 4z"/>
<path d="M1295 930 c-11 -4 -26 -5 -32 -3 -7 3 -13 0 -13 -6 0 -6 17 -11 40
-11 22 0 40 4 40 9 0 15 -13 19 -35 11z"/>
<path d="M1394 929 c-9 -15 5 -27 26 -22 11 3 20 9 20 13 0 12 -39 19 -46 9z"/>
<path d="M1484 929 c-3 -6 -1 -16 5 -22 8 -8 11 -5 11 11 0 24 -5 28 -16 11z"/>
<path d="M1570 921 c0 -12 5 -21 10 -21 6 0 10 6 10 14 0 8 -4 18 -10 21 -5 3
-10 -3 -10 -14z"/>
<path d="M1834 929 c-3 -6 -1 -16 5 -22 8 -8 11 -5 11 11 0 24 -5 28 -16 11z"/>
<path d="M1894 929 c-3 -6 -1 -16 5 -22 8 -8 11 -5 11 11 0 24 -5 28 -16 11z"/>
<path d="M980 920 c0 -5 11 -10 25 -10 14 0 25 5 25 10 0 6 -11 10 -25 10 -14
0 -25 -4 -25 -10z"/>
<path d="M1750 920 c0 -5 9 -10 20 -10 11 0 20 5 20 10 0 6 -9 10 -20 10 -11
0 -20 -4 -20 -10z"/>
<path d="M428 858 c2 -10 8 -15 13 -12 14 8 11 31 -5 31 -8 0 -11 -8 -8 -19z"/>
<path d="M460 860 c0 -19 11 -26 23 -14 8 8 -3 34 -14 34 -5 0 -9 -9 -9 -20z"/>
<path d="M493 860 c1 -20 8 -25 20 -14 7 8 -3 34 -13 34 -5 0 -8 -9 -7 -20z"/>
<path d="M522 863 c2 -16 11 -18 78 -18 67 0 76 2 78 18 1 18 0 18 -19 1 -19
-17 -20 -17 -13 2 7 17 6 17 -9 5 -14 -11 -17 -11 -17 0 0 11 -2 11 -10 -1 -9
-13 -11 -13 -20 0 -8 12 -10 12 -10 1 0 -11 -3 -11 -17 0 -15 12 -16 12 -9 -5
7 -19 6 -19 -13 -2 -19 17 -20 17 -19 -1z"/>
<path d="M690 860 c0 -11 4 -20 8 -20 4 0 8 9 9 20 1 11 -2 20 -8 20 -5 0 -9
-9 -9 -20z"/>
<path d="M720 860 c0 -11 5 -20 10 -20 6 0 10 9 10 20 0 11 -4 20 -10 20 -5 0
-10 -9 -10 -20z"/>
<path d="M804 868 c-3 -4 -3 -11 -1 -15 6 -10 164 -9 173 0 10 9 26 9 21 0 -3
-5 10 -8 29 -8 26 0 34 4 34 18 0 9 -3 17 -6 17 -4 0 -13 -8 -20 -17 -10 -13
-13 -14 -9 -3 4 12 -2 15 -32 14 -21 -1 -40 -3 -43 -4 -3 -1 -18 -1 -35 0 -77
6 -107 5 -111 -2z"/>
<path d="M1070 865 c0 -8 5 -15 10 -15 6 0 10 7 10 15 0 8 -4 15 -10 15 -5 0
-10 -7 -10 -15z"/>
<path d="M1100 860 c0 -11 5 -20 10 -20 6 0 10 9 10 20 0 11 -4 20 -10 20 -5
0 -10 -9 -10 -20z"/>
<path d="M1130 860 c0 -19 3 -21 12 -12 9 9 9 15 0 24 -9 9 -12 7 -12 -12z"/>
<path d="M1160 873 c0 -5 5 -15 10 -23 8 -12 10 -11 10 8 0 12 -4 22 -10 22
-5 0 -10 -3 -10 -7z"/>
<path d="M1268 872 c-10 -2 -18 -8 -18 -14 0 -5 7 -8 15 -4 8 3 15 0 15 -6 0
-7 5 -6 15 2 8 7 15 9 15 4 0 -5 22 -9 48 -9 36 0 48 4 49 15 1 11 -9 15 -33
15 -19 0 -34 -4 -34 -8 0 -5 -6 -5 -12 -1 -15 9 -36 11 -60 6z"/>
<path d="M1484 869 c-3 -6 -1 -16 5 -22 8 -8 11 -5 11 11 0 24 -5 28 -16 11z"/>
<path d="M1514 869 c-3 -6 -1 -16 5 -22 8 -8 11 -5 11 11 0 24 -5 28 -16 11z"/>
<path d="M1546 871 c-10 -15 -2 -24 24 -26 14 -1 20 5 20 18 0 16 -3 17 -14 8
-11 -9 -15 -9 -18 1 -3 9 -6 9 -12 -1z"/>
<path d="M1600 860 c0 -11 4 -20 8 -20 4 0 8 9 9 20 1 11 -2 20 -8 20 -5 0 -9
-9 -9 -20z"/>
<path d="M1630 865 c0 -8 5 -15 10 -15 6 0 10 7 10 15 0 8 -4 15 -10 15 -5 0
-10 -7 -10 -15z"/>
<path d="M1660 871 c0 -18 22 -24 91 -25 52 -1 69 2 69 12 0 8 -6 12 -12 9 -7
-2 -23 0 -35 4 -15 6 -23 5 -23 -2 0 -8 -5 -7 -15 1 -12 10 -15 10 -15 0 0 -9
-4 -9 -17 1 -15 12 -16 12 -10 -6 7 -19 6 -19 -7 -2 -15 19 -26 22 -26 8z"/>
<path d="M1833 862 c-3 -7 -2 -16 2 -20 4 -4 10 -1 12 6 4 10 8 10 19 1 11 -9
14 -8 14 7 0 15 2 16 9 5 8 -13 31 -8 31 7 0 14 -82 8 -87 -6z"/>
<path d="M544 811 c-2 -2 -4 -10 -4 -18 0 -10 18 -13 70 -13 66 0 70 1 70 23
-1 21 -1 22 -15 3 -15 -20 -15 -20 -15 0 -1 19 -1 19 -15 0 -11 -14 -15 -16
-15 -5 0 9 -11 14 -36 14 -20 0 -38 -2 -40 -4z"/>
<path d="M695 807 c-4 -10 -5 -21 -1 -24 10 -10 18 4 13 24 -4 17 -4 17 -12 0z"/>
<path d="M720 800 c0 -11 5 -20 10 -20 6 0 10 9 10 20 0 11 -4 20 -10 20 -5 0
-10 -9 -10 -20z"/>
<path d="M805 810 c-4 -6 -3 -16 3 -22 6 -6 12 -6 17 2 4 6 3 16 -3 22 -6 6
-12 6 -17 -2z"/>
<path d="M840 803 c0 -17 9 -19 95 -18 78 0 95 3 95 15 0 11 -10 15 -37 13
-21 -1 -40 -2 -43 -3 -12 -5 -91 0 -100 5 -6 3 -10 -2 -10 -12z"/>
<path d="M1040 806 c0 -8 5 -18 10 -21 6 -3 10 1 10 9 0 8 -4 18 -10 21 -5 3
-10 -1 -10 -9z"/>
<path d="M1070 800 c0 -11 5 -20 10 -20 6 0 10 9 10 20 0 11 -4 20 -10 20 -5
0 -10 -9 -10 -20z"/>
<path d="M1107 814 c-4 -4 -7 -14 -7 -23 0 -11 3 -12 11 -4 6 6 10 16 7 23 -2
6 -7 8 -11 4z"/>
<path d="M1130 806 c0 -8 5 -18 10 -21 6 -3 10 1 10 9 0 8 -4 18 -10 21 -5 3
-10 -1 -10 -9z"/>
<path d="M1297 812 c-9 -2 -17 -8 -17 -13 0 -7 33 -9 85 -7 49 2 85 -1 85 -6
0 -6 5 -5 12 2 6 6 10 14 7 16 -5 5 -150 12 -172 8z"/>
<path d="M1515 807 c-4 -10 -5 -21 -1 -24 10 -10 18 4 13 24 -4 17 -4 17 -12
0z"/>
<path d="M1544 809 c-3 -6 -1 -16 5 -22 8 -8 11 -5 11 11 0 24 -5 28 -16 11z"/>
<path d="M1574 809 c-3 -6 -1 -16 5 -22 8 -8 11 -5 11 11 0 24 -5 28 -16 11z"/>
<path d="M1678 812 c-10 -2 -18 -9 -18 -15 0 -15 127 -14 142 1 6 6 16 8 23 6
7 -3 15 -2 18 3 5 8 -128 12 -165 5z"/>
<path d="M1600 795 c0 -8 5 -15 10 -15 6 0 10 7 10 15 0 8 -4 15 -10 15 -5 0
-10 -7 -10 -15z"/>
<path d="M1630 795 c0 -8 5 -15 10 -15 6 0 10 7 10 15 0 8 -4 15 -10 15 -5 0
-10 -7 -10 -15z"/>
<path d="M807 754 c-4 -4 -7 -13 -7 -21 0 -10 26 -13 115 -13 96 0 115 3 115
15 0 9 -9 15 -25 15 -14 0 -25 -6 -25 -12 0 -8 -3 -9 -8 -3 -10 14 -102 15
-102 1 0 -6 -5 -4 -11 4 -8 12 -12 12 -16 2 -4 -10 -8 -9 -17 3 -6 9 -15 13
-19 9z"/>
<path d="M1040 735 c0 -8 5 -15 10 -15 6 0 10 7 10 15 0 8 -4 15 -10 15 -5 0
-10 -7 -10 -15z"/>
<path d="M1070 735 c0 -8 5 -15 10 -15 6 0 10 7 10 15 0 8 -4 15 -10 15 -5 0
-10 -7 -10 -15z"/>
<path d="M1100 735 c0 -8 5 -15 10 -15 6 0 10 7 10 15 0 8 -4 15 -10 15 -5 0
-10 -7 -10 -15z"/>
<path d="M1130 735 c0 -8 5 -15 10 -15 6 0 10 7 10 15 0 8 -4 15 -10 15 -5 0
-10 -7 -10 -15z"/>
<path d="M1160 735 c0 -8 5 -15 10 -15 6 0 10 7 10 15 0 8 -4 15 -10 15 -5 0
-10 -7 -10 -15z"/>
<path d="M1545 690 c-3 -5 -1 -18 4 -27 9 -16 10 -14 11 10 0 28 -5 34 -15 17z"/>
<path d="M800 675 c0 -10 10 -15 30 -15 17 0 30 5 30 13 0 8 4 7 10 -3 9 -13
11 -13 20 0 6 10 10 11 10 3 0 -7 9 -13 20 -13 11 0 20 7 20 15 0 12 -14 15
-70 15 -56 0 -70 -3 -70 -15z"/>
<path d="M950 675 c0 -18 16 -20 23 -2 4 10 6 10 6 0 1 -19 51 -16 51 2 0 11
-11 15 -40 15 -29 0 -40 -4 -40 -15z"/>
<path d="M1040 675 c0 -8 5 -15 10 -15 6 0 10 7 10 15 0 8 -4 15 -10 15 -5 0
-10 -7 -10 -15z"/>
<path d="M1070 675 c0 -8 5 -15 10 -15 6 0 10 7 10 15 0 8 -4 15 -10 15 -5 0
-10 -7 -10 -15z"/>
<path d="M1100 675 c0 -8 5 -15 10 -15 6 0 10 7 10 15 0 8 -4 15 -10 15 -5 0
-10 -7 -10 -15z"/>
<path d="M1130 675 c0 -8 5 -15 10 -15 6 0 10 7 10 15 0 8 -4 15 -10 15 -5 0
-10 -7 -10 -15z"/>
<path d="M1160 675 c0 -8 5 -15 10 -15 6 0 10 7 10 15 0 8 -4 15 -10 15 -5 0
-10 -7 -10 -15z"/>
<path d="M1190 675 c0 -8 5 -15 10 -15 6 0 10 7 10 15 0 8 -4 15 -10 15 -5 0
-10 -7 -10 -15z"/>
<path d="M1220 675 c0 -8 5 -15 10 -15 6 0 10 7 10 15 0 8 -4 15 -10 15 -5 0
-10 -7 -10 -15z"/>
<path d="M1250 675 c0 -8 5 -15 10 -15 6 0 10 5 10 10 0 6 5 10 11 10 5 0 7
-4 4 -10 -3 -5 -1 -10 4 -10 6 0 11 7 11 15 0 9 -9 15 -25 15 -16 0 -25 -6
-25 -15z"/>
<path d="M1310 675 c0 -8 5 -15 10 -15 6 0 10 7 10 15 0 8 -4 15 -10 15 -5 0
-10 -7 -10 -15z"/>
<path d="M1341 673 c0 -11 3 -13 6 -5 2 6 9 12 14 12 6 0 7 -4 4 -10 -3 -5 -1
-10 4 -10 6 0 11 7 11 15 0 8 -9 15 -20 15 -13 0 -20 -6 -19 -17z"/>
<path d="M1390 675 c0 -8 5 -15 10 -15 6 0 10 7 10 15 0 8 -4 15 -10 15 -5 0
-10 -7 -10 -15z"/>
<path d="M1420 675 c0 -10 9 -15 28 -14 l27 1 -25 8 -25 8 28 1 c15 1 27 -3
27 -9 0 -5 5 -10 10 -10 6 0 10 7 10 15 0 11 -11 15 -40 15 -29 0 -40 -4 -40
-15z"/>
<path d="M1510 675 c0 -8 5 -15 10 -15 6 0 10 7 10 15 0 8 -4 15 -10 15 -5 0
-10 -7 -10 -15z"/>
<path d="M800 615 c0 -13 21 -15 130 -15 109 0 130 2 130 15 0 13 -21 15 -130
15 -109 0 -130 -2 -130 -15z"/>
<path d="M1070 615 c0 -8 5 -15 10 -15 6 0 10 7 10 15 0 8 -4 15 -10 15 -5 0
-10 -7 -10 -15z"/>
<path d="M1100 615 c0 -8 5 -15 10 -15 6 0 10 7 10 15 0 8 -4 15 -10 15 -5 0
-10 -7 -10 -15z"/>
<path d="M1160 615 c0 -8 5 -15 10 -15 6 0 10 7 10 15 0 8 -4 15 -10 15 -5 0
-10 -7 -10 -15z"/>
<path d="M1190 615 c0 -8 5 -15 10 -15 6 0 10 7 10 15 0 8 -4 15 -10 15 -5 0
-10 -7 -10 -15z"/>
<path d="M1220 615 c0 -8 5 -15 10 -15 6 0 10 7 10 15 0 8 -4 15 -10 15 -5 0
-10 -7 -10 -15z"/>
<path d="M1280 615 c0 -20 69 -20 96 0 17 13 17 14 2 15 -10 0 -18 -6 -18 -12
0 -10 -3 -9 -9 1 -7 11 -9 11 -14 0 -4 -10 -6 -10 -6 -1 -1 18 -51 15 -51 -3z"/>
<path d="M1480 615 c0 -9 9 -15 25 -15 16 0 25 6 25 15 0 9 -9 15 -25 15 -16
0 -25 -6 -25 -15z"/>
<path d="M1540 615 c0 -8 5 -15 10 -15 6 0 10 7 10 15 0 8 -4 15 -10 15 -5 0
-10 -7 -10 -15z"/>
<path d="M800 557 c0 -19 10 -27 25 -20 17 6 8 33 -11 33 -8 0 -14 -6 -14 -13z"/>
<path d="M842 558 c2 -6 10 -14 16 -16 7 -2 10 2 6 12 -7 18 -28 22 -22 4z"/>
<path d="M870 561 c0 -22 65 -37 77 -18 4 6 1 7 -7 2 -9 -5 -11 -4 -6 4 5 7
12 9 19 3 17 -13 70 -9 75 6 2 6 -1 12 -7 12 -6 0 -11 -6 -11 -12 0 -9 -4 -8
-10 2 -9 13 -11 13 -20 0 -6 -10 -10 -11 -10 -2 0 8 -17 12 -50 12 -27 0 -50
-4 -50 -9z"/>
<path d="M1036 555 c-3 -9 0 -15 9 -15 8 0 15 7 15 15 0 8 -4 15 -9 15 -5 0
-11 -7 -15 -15z"/>
<path d="M1070 555 c0 -8 5 -15 10 -15 6 0 10 7 10 15 0 8 -4 15 -10 15 -5 0
-10 -7 -10 -15z"/>
<path d="M1100 555 c0 -8 5 -15 10 -15 6 0 10 7 10 15 0 8 -4 15 -10 15 -5 0
-10 -7 -10 -15z"/>
<path d="M1130 556 c0 -8 5 -18 10 -21 6 -3 10 3 10 14 0 12 -4 21 -10 21 -5
0 -10 -6 -10 -14z"/>
<path d="M1160 555 c0 -8 5 -15 10 -15 6 0 10 7 10 15 0 8 -4 15 -10 15 -5 0
-10 -7 -10 -15z"/>
<path d="M1190 555 c0 -8 5 -15 10 -15 6 0 10 7 10 15 0 8 -4 15 -10 15 -5 0
-10 -7 -10 -15z"/>
<path d="M1220 555 c0 -8 5 -15 10 -15 6 0 10 7 10 15 0 8 -4 15 -10 15 -5 0
-10 -7 -10 -15z"/>
<path d="M1250 555 c0 -8 5 -15 10 -15 6 0 10 7 10 15 0 8 -4 15 -10 15 -5 0
-10 -7 -10 -15z"/>
<path d="M1280 547 c0 -16 3 -17 14 -8 11 9 20 10 35 1 12 -6 21 -9 22 -8 9
35 6 38 -32 36 -32 -1 -39 -5 -39 -21z"/>
<path d="M1480 556 c0 -7 18 -12 40 -13 27 -1 40 2 40 11 0 8 -14 13 -40 13
-23 0 -40 -5 -40 -11z"/>
<path d="M806 513 c-12 -12 -6 -33 9 -33 8 0 15 6 15 14 0 17 -14 28 -24 19z"/>
<path d="M1329 509 c-8 -4 -22 -6 -31 -3 -12 4 -18 0 -18 -11 0 -11 5 -15 15
-11 8 3 15 0 15 -6 0 -7 5 -6 15 2 8 7 15 9 15 4 0 -8 19 -9 88 -5 6 1 12 8
12 16 0 12 -4 13 -18 4 -14 -9 -25 -8 -48 4 -20 10 -35 12 -45 6z"/>
<path d="M840 495 c0 -17 36 -21 148 -14 33 2 50 14 37 27 -3 3 -10 0 -15 -8
-8 -12 -10 -12 -10 -1 0 11 -3 11 -15 1 -8 -7 -15 -8 -15 -3 0 13 -93 11 -102
-2 -5 -6 -8 -5 -8 3 0 6 -4 12 -10 12 -5 0 -10 -7 -10 -15z"/>
<path d="M1036 495 c-3 -9 0 -15 9 -15 8 0 15 7 15 15 0 8 -4 15 -9 15 -5 0
-11 -7 -15 -15z"/>
<path d="M1070 495 c0 -8 5 -15 10 -15 6 0 10 7 10 15 0 8 -4 15 -10 15 -5 0
-10 -7 -10 -15z"/>
<path d="M1100 495 c0 -8 5 -15 10 -15 6 0 10 7 10 15 0 8 -4 15 -10 15 -5 0
-10 -7 -10 -15z"/>
<path d="M1220 495 c0 -8 5 -15 10 -15 6 0 10 7 10 15 0 8 -4 15 -10 15 -5 0
-10 -7 -10 -15z"/>
<path d="M1480 495 c0 -8 5 -15 10 -15 6 0 10 7 10 15 0 8 -4 15 -10 15 -5 0
-10 -7 -10 -15z"/>
<path d="M1510 496 c0 -6 11 -12 25 -12 14 -1 25 4 25 11 0 7 -11 13 -25 13
-14 0 -25 -6 -25 -12z"/>
<path d="M895 440 c-11 -17 3 -27 32 -23 16 2 52 3 81 4 39 0 52 3 52 14 0 8
-4 15 -10 15 -5 0 -10 -6 -10 -12 0 -10 -3 -9 -9 1 -6 10 -10 10 -16 1 -6 -9
-10 -9 -16 1 -8 12 -11 11 -19 -1 -6 -9 -10 -10 -10 -3 0 6 -9 11 -20 10 -11
-1 -20 -5 -20 -10 0 -5 -6 -4 -14 2 -10 8 -16 9 -21 1z"/>
<path d="M1070 435 c0 -8 5 -15 10 -15 6 0 10 7 10 15 0 8 -4 15 -10 15 -5 0
-10 -7 -10 -15z"/>
<path d="M1100 435 c0 -8 5 -15 10 -15 6 0 10 7 10 15 0 8 -4 15 -10 15 -5 0
-10 -7 -10 -15z"/>
<path d="M1130 435 c0 -8 5 -15 10 -15 6 0 10 7 10 15 0 8 -4 15 -10 15 -5 0
-10 -7 -10 -15z"/>
<path d="M1160 435 c0 -8 5 -15 10 -15 6 0 10 7 10 15 0 8 -4 15 -10 15 -5 0
-10 -7 -10 -15z"/>
<path d="M1190 435 c0 -8 5 -15 10 -15 6 0 10 7 10 15 0 8 -4 15 -10 15 -5 0
-10 -7 -10 -15z"/>
<path d="M1220 434 c0 -9 14 -12 50 -10 35 3 48 0 43 -8 -3 -6 0 -6 8 2 14 13
33 17 25 4 -2 -4 3 -8 13 -8 9 0 18 7 18 16 1 13 -12 16 -78 16 -59 1 -79 -2
-79 -12z"/>
<path d="M1390 436 c0 -8 5 -18 12 -22 7 -4 8 -3 4 4 -9 15 6 16 20 2 6 -6 10
-3 11 10 1 15 -4 20 -23 20 -14 0 -24 -6 -24 -14z"/>
<path d="M1450 436 c0 -8 5 -18 10 -21 6 -3 10 3 10 14 0 12 -4 21 -10 21 -5
0 -10 -6 -10 -14z"/>
<path d="M1480 435 c0 -8 5 -15 10 -15 6 0 10 7 10 15 0 8 -4 15 -10 15 -5 0
-10 -7 -10 -15z"/>
<path d="M1040 376 c0 -8 5 -18 10 -21 6 -3 10 3 10 14 0 12 -4 21 -10 21 -5
0 -10 -6 -10 -14z"/>
<path d="M1070 369 c0 -11 5 -17 10 -14 6 3 10 13 10 21 0 8 -4 14 -10 14 -5
0 -10 -9 -10 -21z"/>
<path d="M1100 383 c0 -5 5 -15 10 -23 8 -12 10 -11 10 8 0 12 -4 22 -10 22
-5 0 -10 -3 -10 -7z"/>
<path d="M1130 370 c0 -11 5 -20 10 -20 6 0 10 9 10 20 0 11 -4 20 -10 20 -5
0 -10 -9 -10 -20z"/>
<path d="M1160 376 c0 -8 5 -18 10 -21 6 -3 10 3 10 14 0 12 -4 21 -10 21 -5
0 -10 -6 -10 -14z"/>
<path d="M1190 376 c0 -8 5 -18 10 -21 6 -3 10 3 10 14 0 12 -4 21 -10 21 -5
0 -10 -6 -10 -14z"/>
<path d="M1220 370 c0 -11 5 -20 10 -20 6 0 10 9 10 20 0 11 -4 20 -10 20 -5
0 -10 -9 -10 -20z"/>
<path d="M1250 375 c0 -18 20 -20 20 -2 1 7 6 5 14 -5 18 -24 25 -23 19 2 -6
24 -53 28 -53 5z"/>
<path d="M1310 383 c0 -5 5 -15 10 -23 8 -12 10 -11 10 8 0 12 -4 22 -10 22
-5 0 -10 -3 -10 -7z"/>
</g>
</svg>
